<svg width="10" height="12" viewBox="0 0 10 12" fill="none" xmlns="http://www.w3.org/2000/svg">
<g id="Award 4">
<g id="Vector">
<path fill-rule="evenodd" clip-rule="evenodd" d="M6.01271 2.87906C5.69647 1.87365 4.30353 1.87365 3.98729 2.87906C3.9422 3.0224 3.81797 3.10816 3.69002 3.10816C2.63549 3.10816 2.25395 4.46502 3.06011 5.07005C3.1712 5.15342 3.22333 5.30783 3.17767 5.453C3.02273 5.94559 3.22146 6.40639 3.56048 6.66083C3.90126 6.91659 4.40184 6.97488 4.82029 6.66083C4.9283 6.57977 5.0717 6.57977 5.17971 6.66083C5.59816 6.97488 6.09874 6.91659 6.43952 6.66083C6.77854 6.40639 6.97727 5.94559 6.82233 5.453C6.77667 5.30783 6.8288 5.15342 6.93989 5.07005C7.74605 4.46502 7.36451 3.10816 6.30998 3.10816C6.18203 3.10816 6.0578 3.0224 6.01271 2.87906ZM3.69002 3.85816C4.15879 3.85816 4.56342 3.547 4.70273 3.1041C4.79881 2.79863 5.20119 2.79863 5.29727 3.1041C5.43658 3.547 5.84121 3.85816 6.30998 3.85816C6.45501 3.85816 6.56325 3.94736 6.60725 4.08725C6.65152 4.22801 6.61536 4.37588 6.48969 4.4702C6.11802 4.74914 5.96814 5.23696 6.10688 5.67803C6.1581 5.84088 6.0968 5.98031 5.98932 6.06098C5.88359 6.14033 5.7512 6.15201 5.6299 6.06098C5.25515 5.77972 4.74485 5.77972 4.3701 6.06098C4.2488 6.15201 4.11641 6.14033 4.01068 6.06098C3.9032 5.98031 3.8419 5.84088 3.89312 5.67803C4.03186 5.23695 3.88198 4.74914 3.51031 4.4702C3.38464 4.37588 3.34848 4.22801 3.39275 4.08725C3.43675 3.94736 3.54499 3.85816 3.69002 3.85816Z" fill="#5C4E00"/>
<path fill-rule="evenodd" clip-rule="evenodd" d="M5 0.125C2.58375 0.125 0.625 2.08375 0.625 4.5C0.625 5.55735 1.00053 6.52782 1.62502 7.28408L1.625 10.2195C1.62497 10.5847 1.62495 10.9011 1.66027 11.1384C1.6959 11.3777 1.78721 11.6781 2.09639 11.8164C2.40085 11.9526 2.6867 11.8276 2.89353 11.7001C3.10044 11.5726 3.34651 11.3675 3.63259 11.129L4.12446 10.719C4.39799 10.491 4.57702 10.3427 4.72556 10.2473C4.8651 10.1577 4.94 10.1403 5 10.1403C5.06 10.1403 5.1349 10.1577 5.27444 10.2473C5.42298 10.3427 5.60201 10.491 5.87554 10.719L6.3674 11.129C6.65349 11.3675 6.89956 11.5726 7.10647 11.7001C7.3133 11.8276 7.59915 11.9526 7.90361 11.8164C8.21279 11.6781 8.3041 11.3777 8.33973 11.1384C8.37505 10.9011 8.37503 10.5847 8.375 10.2194L8.37498 7.28408C8.99947 6.52782 9.375 5.55735 9.375 4.5C9.375 2.08375 7.41625 0.125 5 0.125ZM1.375 4.5C1.375 2.49797 2.99797 0.875 5 0.875C7.00203 0.875 8.625 2.49797 8.625 4.5C8.625 5.4196 8.28306 6.25842 7.71885 6.89767C7.05407 7.65087 6.08264 8.125 5 8.125C3.91746 8.125 2.94611 7.65095 2.28133 6.89788C1.71701 6.2586 1.375 5.4197 1.375 4.5ZM2.4021 11.0279C2.37602 10.8528 2.375 10.5935 2.375 10.1893V8.00026C3.10606 8.5493 4.01512 8.875 5 8.875C5.98488 8.875 6.89394 8.5493 7.625 8.00026V10.1893C7.625 10.5935 7.62398 10.8528 7.5979 11.0279C7.59283 11.062 7.58751 11.0879 7.58263 11.1072C7.56235 11.0977 7.53521 11.0833 7.49995 11.0616C7.34456 10.9658 7.1401 10.7967 6.82514 10.5341L6.33836 10.1284C6.08702 9.91889 5.87223 9.73984 5.67973 9.61621C5.47381 9.48395 5.25708 9.39033 5 9.39033C4.74292 9.39033 4.52619 9.48395 4.32027 9.61621C4.12777 9.73984 3.91298 9.91889 3.66164 10.1284L3.17486 10.5341C2.8599 10.7967 2.65544 10.9658 2.50005 11.0616C2.46479 11.0833 2.43765 11.0977 2.41737 11.1072C2.41249 11.0879 2.40717 11.062 2.4021 11.0279ZM7.56408 11.1586C7.56399 11.1584 7.56491 11.1565 7.56714 11.1537C7.56528 11.1575 7.56417 11.1589 7.56408 11.1586ZM7.62827 11.1244C7.63137 11.1244 7.63311 11.1248 7.63321 11.1249C7.6333 11.1251 7.63175 11.1251 7.62827 11.1244ZM2.36679 11.1249C2.36689 11.1248 2.36863 11.1244 2.37172 11.1244C2.36825 11.1251 2.3667 11.1251 2.36679 11.1249ZM2.43592 11.1586C2.43601 11.1584 2.43509 11.1565 2.43286 11.1537C2.43309 11.1542 2.43331 11.1546 2.43352 11.155C2.43498 11.1578 2.43584 11.1588 2.43592 11.1586Z" fill="#5C4E00"/>
</g>
</g>
</svg>
