<svg width="40" height="13" viewBox="0 0 40 13" fill="none" xmlns="http://www.w3.org/2000/svg">
<g id="BNI 1">
<path id="Vector" fill-rule="evenodd" clip-rule="evenodd" d="M0 4.39404L3.37447 8.99246L0 12.0131V4.39404Z" fill="#F15A23"/>
<path id="Vector_2" fill-rule="evenodd" clip-rule="evenodd" d="M1.35815 12.0129L3.8973 9.71826L5.65229 12.0129H1.35815Z" fill="#F15A23"/>
<path id="Vector_3" fill-rule="evenodd" clip-rule="evenodd" d="M0 1.93443L0.880615 3.13777L4.5014 8.02529L5.67467 7.01602C5.67467 7.01602 4.70064 5.7773 4.04663 4.39498C2.76798 1.6924 3.67322 0.00976562 3.67322 0.00976562H0V1.93443Z" fill="#F15A23"/>
<path id="Vector_4" fill-rule="evenodd" clip-rule="evenodd" d="M5.01746 8.77902L6.21236 7.71289C6.21236 7.71289 7.35357 9.33572 8.67684 9.7187C10.4109 10.2206 11.1787 8.99262 11.1787 8.99262V12.0133H7.36993L8.22876 11.2111C8.22876 11.2111 7.78068 11.5339 6.68476 10.7139C6.03796 10.2299 5.01746 8.77902 5.01746 8.77902Z" fill="#F15A23"/>
<path id="Vector_5" fill-rule="evenodd" clip-rule="evenodd" d="M5.12727 0C5.12727 0 4.74605 0.560944 5.01743 1.93345C5.3074 3.40048 6.46088 4.95317 6.4582 4.91841C6.4582 4.91841 6.53235 3.37666 7.36983 2.47191C9.15508 0.54343 11.1785 1.69144 11.1785 1.69144V0.00880179L5.12727 0Z" fill="#F15A23"/>
<path id="Vector_6" fill-rule="evenodd" clip-rule="evenodd" d="M11.1785 3.72429C11.1785 3.72429 10.0496 2.67969 9.06806 2.67969C7.81247 2.67969 7.12708 3.85067 7.12708 4.70008C7.12708 5.93736 7.67682 6.62484 8.22865 7.22094C9.02158 8.07748 9.98631 9.00137 11.1785 8.25776C11.1785 6.85045 11.1785 3.72429 11.1785 3.72429Z" fill="#F15A23"/>
<path id="Vector_7" fill-rule="evenodd" clip-rule="evenodd" d="M24.0359 0.125977H26.7C26.7 0.125977 29.0601 3.98621 30.22 5.58109C31.3798 7.17596 32.6282 8.9926 32.6282 8.9926C32.6282 8.9926 32.6282 3.72456 32.6282 0.990471C32.6282 0.644867 31.7882 0.125977 31.7882 0.125977H34.8603C34.8603 0.125977 33.8523 0.573364 33.8523 0.990471C33.8523 4.39418 33.8523 12.6316 33.8523 12.6316C33.8523 12.6316 32.885 12.0523 31.7882 10.6754C30.5558 9.12851 26.172 2.88314 26.172 2.88314C26.172 2.88314 26.172 8.779 26.172 10.9723C26.172 11.3866 27.0121 12.0133 27.0121 12.0133H24.0359C24.0359 12.0133 24.852 11.3815 24.852 10.9723C24.852 8.02449 24.852 3.72456 24.852 0.990471C24.852 0.623115 24.0359 0.125977 24.0359 0.125977Z" fill="#005E6A"/>
<path id="Vector_8" fill-rule="evenodd" clip-rule="evenodd" d="M36.5808 0.125977H40C40 0.125977 39.0819 0.595765 39.0819 0.990471C39.0819 3.72457 39.0819 8.25803 39.0819 10.9723C39.0819 11.4036 40 12.0133 40 12.0133H36.5808C36.5808 12.0133 37.4356 11.3898 37.4356 10.9723C37.4356 7.71287 37.4356 3.72457 37.4356 0.990471C37.4356 0.610998 36.5808 0.125977 36.5808 0.125977Z" fill="#005E6A"/>
<path id="Vector_9" fill-rule="evenodd" clip-rule="evenodd" d="M13.9764 0.125977C13.9764 0.125977 14.8628 0.603446 14.8628 0.990471C14.8628 3.72457 14.8628 7.71287 14.8628 10.9723C14.8628 11.3967 13.9764 12.0133 13.9764 12.0133C13.9764 12.0133 18.4048 12.0133 19.0418 12.0133C19.3584 12.0133 22.9042 11.3869 22.9042 8.43382C22.9042 5.48082 20.1499 5.20427 20.1499 5.20427C20.1499 5.20427 21.8278 4.70036 21.8278 2.67996C21.8278 0.502174 19.3584 0.125977 19.0418 0.125977C18.3839 0.125977 13.9764 0.125977 13.9764 0.125977ZM16.6674 5.00862V1.29226C16.6674 1.29226 18.1357 1.29226 18.7252 1.29226C19.0418 1.29226 20.1499 1.69156 20.1499 3.17305C20.1499 4.39418 19.0418 5.00862 18.7252 5.00862C18.0075 5.00862 16.6674 5.00862 16.6674 5.00862ZM16.6674 5.98329C16.6674 5.98329 18.7252 5.98329 19.0418 5.98329C19.3584 5.98329 21.2263 6.50738 21.2263 8.25803C21.2263 10.043 19.3584 10.6754 19.0418 10.6754C18.7252 10.6754 16.6674 10.6754 16.6674 10.6754V5.98329Z" fill="#005E6A"/>
</g>
</svg>
