<svg width="40" height="10" viewBox="0 0 40 10" fill="none" xmlns="http://www.w3.org/2000/svg">
<g id="Group">
<path id="Vector" d="M10.8229 2.39014H12.9784C13.8515 2.39014 14.5023 2.77701 14.5023 3.59208C14.5023 4.18965 14.2003 4.52235 13.6765 4.69896V4.71261C14.3011 4.84182 14.6233 5.18134 14.6233 5.75843C14.6233 6.89256 13.636 7.13018 12.7967 7.13018H10.8229V2.39014ZM12.0717 4.26473H12.4209C12.8305 4.26473 13.2538 4.16277 13.2538 3.76187C13.2538 3.32764 12.8507 3.28669 12.434 3.28669H12.0717V4.26473ZM12.0717 6.23399H12.4412C12.8979 6.23399 13.3745 6.16579 13.3745 5.68378C13.3745 5.16769 12.8844 5.12034 12.4543 5.12034H12.0717V6.23399Z" fill="#00529C"/>
<path id="Vector_2" d="M16.2626 2.39014H17.7935L19.5999 7.13018H18.23L17.8808 6.11844H16.1217L15.7523 7.13018H14.4832L16.2626 2.39014ZM17.0281 3.36817H17.0146L16.4102 5.2223H17.5856L17.0281 3.36817Z" fill="#00529C"/>
<path id="Vector_3" d="M19.7736 2.39014H21.3649L22.9498 5.60918H22.9629L22.9431 2.39014H24.0847V7.13018H22.5332L20.8951 3.89071H20.882L20.9216 7.13018H19.7736V2.39014Z" fill="#00529C"/>
<path id="Vector_4" d="M24.5085 2.39014H25.7574V4.32574H25.7709L27.1808 2.39014H28.6848L26.9526 4.59701L28.8192 7.13018H27.2276L25.7709 4.97749H25.7574V7.13018H24.5085V2.39014Z" fill="#00529C"/>
<path id="Vector_5" d="M30.368 2.39014H32.5235C33.3962 2.39014 34.0477 2.77701 34.0477 3.59208C34.0477 4.18965 33.7458 4.52235 33.2219 4.69896V4.71261C33.8466 4.84182 34.1684 5.18134 34.1684 5.75843C34.1684 6.89256 33.1815 7.13018 32.3422 7.13018H30.368V2.39014ZM31.6168 4.26473H31.966C32.3759 4.26473 32.7985 4.16277 32.7985 3.76187C32.7985 3.32764 32.3962 3.28669 31.9795 3.28669H31.6168V4.26473ZM31.6168 6.23399H31.9862C32.4426 6.23399 32.9196 6.16579 32.9196 5.68378C32.9196 5.16769 32.4295 5.12034 31.9997 5.12034H31.6168V6.23399Z" fill="#00529C"/>
<path id="Vector_6" d="M34.4454 2.39014H36.6748C37.5073 2.39014 38.1855 2.77059 38.1855 3.58568C38.1855 4.21695 37.8902 4.63796 37.2859 4.78044V4.79404C37.6883 4.90282 37.7153 5.26282 37.9506 5.83991L38.4069 7.13018H37.1046L36.8359 6.27494C36.5808 5.45986 36.4192 5.25558 35.9561 5.25558H35.6942V7.13018H34.4454V2.39014ZM35.6942 4.35944H36.0232C36.4264 4.35944 36.9367 4.34579 36.9367 3.80923C36.9367 3.36817 36.5002 3.28669 36.0232 3.28669H35.6942V4.35944Z" fill="#00529C"/>
<path id="Vector_7" d="M38.7512 2.39014H40V7.13016H38.7512V2.39014Z" fill="#00529C"/>
<path id="Vector_8" d="M7.97297 0H1.43692C0.643242 0 0 0.666598 0 1.48891V1.50456V8.03529C0 8.84958 0.631373 9.51175 1.41469 9.52381H7.96941C8.76309 9.52381 9.40669 8.85762 9.40669 8.03529L9.40952 1.48891C9.40952 0.666598 8.76664 0 7.97297 0ZM2.21349 8.7609L1.85715 8.76492C1.42541 8.76492 1.0754 8.40614 1.0754 7.96344L1.07341 7.90048V1.85492L1.07576 1.52904C1.09208 1.10083 1.41391 0.756497 1.83493 0.756497H2.5599C3.21705 0.756497 3.7496 1.3344 3.7496 2.01544C3.7496 2.35256 3.61903 2.65837 3.40753 2.8807L1.55791 4.77894L3.29166 6.56444C3.51508 6.79762 3.64999 7.10344 3.64999 7.43852C3.64999 8.16894 3.00711 8.7609 2.21349 8.7609ZM7.54322 8.75487L4.31111 8.75365C4.31111 8.75365 4.6845 7.93698 4.6845 7.43132C4.6845 6.8145 4.48094 6.26386 4.16188 5.89947L3.05637 4.75968L4.18452 3.58063C4.52063 3.26153 4.74363 2.69489 4.74363 2.04916C4.74363 1.53787 4.60397 1.08518 4.37898 0.756497H5.16188C5.81903 0.756497 6.35195 1.3344 6.35195 2.01544C6.35195 2.35256 6.22139 2.65837 6.00988 2.8807L4.19561 4.75931L7.96387 8.64529C7.84444 8.72116 7.69401 8.75487 7.54322 8.75487ZM8.3325 7.54169L5.63211 4.7581L6.91822 3.43614C7.17976 3.10504 7.34599 2.6066 7.34599 2.04916C7.34599 1.53466 7.20434 1.07033 6.97736 0.741646L7.55273 0.759307C7.98452 0.759307 8.33449 1.11808 8.33449 1.56075L8.3325 7.54169Z" fill="#00529C"/>
</g>
</svg>
