<svg width="22" height="18" viewBox="0 0 22 18" fill="none" xmlns="http://www.w3.org/2000/svg">
<g id="Ticket 2">
<path id="Vector" fill-rule="evenodd" clip-rule="evenodd" d="M9.75 0.25V2.06667C9.75 2.48088 9.41421 2.81667 9 2.81667C8.58579 2.81667 8.25 2.48088 8.25 2.06667V0.25H5.44444C2.57563 0.25 0.25 2.57563 0.25 5.44444C0.25 6.27618 0.72698 7.03421 1.4768 7.39413L1.96417 7.62806C3.1152 8.18056 3.1152 9.81945 1.96417 10.3719L1.4768 10.6059C0.72698 10.9658 0.25 11.7238 0.25 12.5556C0.25 15.4244 2.57563 17.75 5.44444 17.75H8.25V15.9333C8.25 15.5191 8.58579 15.1833 9 15.1833C9.41421 15.1833 9.75 15.5191 9.75 15.9333V17.75H16.5556C19.4244 17.75 21.75 15.4244 21.75 12.5556C21.75 11.7238 21.273 10.9658 20.5232 10.6059L20.0358 10.3719C18.8848 9.81945 18.8848 8.18055 20.0358 7.62806L20.5232 7.39413C21.273 7.03421 21.75 6.27618 21.75 5.44444C21.75 2.57563 19.4244 0.25 16.5556 0.25H9.75ZM9 4.51667C8.58579 4.51667 8.25 4.85245 8.25 5.26667V7.4C8.25 7.81422 8.58579 8.15 9 8.15C9.41421 8.15 9.75 7.81422 9.75 7.4V5.26667C9.75 4.85245 9.41421 4.51667 9 4.51667ZM8.25 10.6C8.25 10.1858 8.58579 9.85 9 9.85C9.41421 9.85 9.75 10.1858 9.75 10.6V12.7333C9.75 13.1475 9.41421 13.4833 9 13.4833C8.58579 13.4833 8.25 13.1475 8.25 12.7333V10.6Z" fill="#00ADEE"/>
</g>
</svg>
